<svg width="23" height="23" viewBox="0 0 23 23" fill="none" xmlns="http://www.w3.org/2000/svg">
<g id="fluent:add-20-regular">
<path id="Vector" d="M11.5 2.87505C11.5 2.72255 11.4395 2.5763 11.3316 2.46846C11.2238 2.36063 11.0775 2.30005 10.925 2.30005C10.7725 2.30005 10.6263 2.36063 10.5185 2.46846C10.4106 2.5763 10.35 2.72255 10.35 2.87505V10.35H2.87505C2.72255 10.35 2.5763 10.4106 2.46846 10.5185C2.36063 10.6263 2.30005 10.7725 2.30005 10.925C2.30005 11.0775 2.36063 11.2238 2.46846 11.3316C2.5763 11.4395 2.72255 11.5 2.87505 11.5H10.35V18.975C10.35 19.1275 10.4106 19.2738 10.5185 19.3816C10.6263 19.4895 10.7725 19.55 10.925 19.55C11.0775 19.55 11.2238 19.4895 11.3316 19.3816C11.4395 19.2738 11.5 19.1275 11.5 18.975V11.5H18.975C19.1275 11.5 19.2738 11.4395 19.3816 11.3316C19.4895 11.2238 19.55 11.0775 19.55 10.925C19.55 10.7725 19.4895 10.6263 19.3816 10.5185C19.2738 10.4106 19.1275 10.35 18.975 10.35H11.5V2.87505Z" fill="white"/>
</g>
</svg>
